name Walk10.mot
datacolumns 19
datarows 17
range 2.15300000 2.16900000
endheader

                time	   L_ground_force_vx	   L_ground_force_vy	   L_ground_force_vz	   L_ground_force_px	   L_ground_force_py	   L_ground_force_pz	   R_ground_force_vx	   R_ground_force_vy	   R_ground_force_vz	   R_ground_force_px	   R_ground_force_py	   R_ground_force_pz	   L_ground_torque_x	   L_ground_torque_y	   L_ground_torque_z	   R_ground_torque_x	   R_ground_torque_y	   R_ground_torque_z	
          2.15300000	          0.00340509	          0.02043963	         -0.00187923	         -0.00018081	          0.00000000	         -0.00008310	        -28.95140003	        546.86955490	        -45.65723455	          0.25172654	          0.00000000	          0.08922286	          0.00000000	          0.00007113	          0.00000000	          0.00000000	          0.44541030	          0.00000000	
          2.15400000	          0.00268349	          0.01751276	         -0.00182652	         -0.00017102	          0.00000000	         -0.00007886	        -28.46770023	        545.44191330	        -45.51949219	          0.25207065	          0.00000000	          0.08934167	          0.00000000	          0.00006696	          0.00000000	          0.00000000	          0.44211097	          0.00000000	
          2.15500000	          0.00201310	          0.01476857	         -0.00177139	         -0.00016142	          0.00000000	         -0.00007469	        -27.98785381	        544.03145613	        -45.37834616	          0.25241349	          0.00000000	          0.08945888	          0.00000000	          0.00006290	          0.00000000	          0.00000000	          0.43888598	          0.00000000	
          2.15600000	          0.00139210	          0.01220190	         -0.00171425	         -0.00015202	          0.00000000	         -0.00007059	        -27.51181741	        542.63839602	        -45.23399223	          0.25275499	          0.00000000	          0.08957448	          0.00000000	          0.00005894	          0.00000000	          0.00000000	          0.43573487	          0.00000000	
          2.15700000	          0.00081864	          0.00980734	         -0.00165550	         -0.00014285	          0.00000000	         -0.00006657	        -27.03954275	        541.26292956	        -45.08664286	          0.25309507	          0.00000000	          0.08968844	          0.00000000	          0.00005510	          0.00000000	          0.00000000	          0.43265665	          0.00000000	
          2.15800000	          0.00029084	          0.00757932	         -0.00159548	         -0.00013392	          0.00000000	         -0.00006264	        -26.57097664	        539.90523710	        -44.93652678	          0.25343368	          0.00000000	          0.08980074	          0.00000000	          0.00005137	          0.00000000	          0.00000000	          0.42964984	          0.00000000	
          2.15900000	         -0.00019318	          0.00551210	         -0.00153454	         -0.00012524	          0.00000000	         -0.00005881	        -26.10606099	        538.56548282	        -44.78388845	          0.25377076	          0.00000000	          0.08991138	          0.00000000	          0.00004777	          0.00000000	          0.00000000	          0.42671245	          0.00000000	
          2.16000000	         -0.00063531	          0.00359981	         -0.00147297	         -0.00011682	          0.00000000	         -0.00005508	        -25.64473294	        537.24381527	        -44.62898777	          0.25410624	          0.00000000	          0.09002033	          0.00000000	          0.00004429	          0.00000000	          0.00000000	          0.42384189	          0.00000000	
          2.16100000	         -0.00103746	          0.00183651	         -0.00141108	         -0.00010868	          0.00000000	         -0.00005146	        -25.18692511	        535.94036834	        -44.47209944	          0.25444008	          0.00000000	          0.09012758	          0.00000000	          0.00004095	          0.00000000	          0.00000000	          0.42103500	          0.00000000	
          2.16200000	         -0.00140149	          0.00021619	         -0.00134912	         -0.00010082	          0.00000000	         -0.00004795	        -24.73256644	        534.65526260	        -44.31351215	          0.25477222	          0.00000000	          0.09023313	          0.00000000	          0.00003773	          0.00000000	          0.00000000	          0.41828805	          0.00000000	
          2.16300000	         -0.00172927	         -0.00126718	         -0.00128733	         -0.00009325	          0.00000000	         -0.00004457	        -24.28158340	        533.38860671	        -44.15352725	          0.25510262	          0.00000000	          0.09033697	          0.00000000	          0.00003464	          0.00000000	          0.00000000	          0.41559673	          0.00000000	
          2.16400000	         -0.00202265	         -0.00261964	         -0.00122593	         -0.00008597	          0.00000000	         -0.00004130	        -23.83390144	        532.14049866	        -43.99245708	          0.25543123	          0.00000000	          0.09043909	          0.00000000	          0.00003168	          0.00000000	          0.00000000	          0.41295613	          0.00000000	
          2.16500000	         -0.00228344	         -0.00384720	         -0.00116511	         -0.00007898	          0.00000000	         -0.00003815	        -23.38944632	        530.91102632	        -43.83062289	          0.25575802	          0.00000000	          0.09053950	          0.00000000	          0.00002886	          0.00000000	          0.00000000	          0.41036062	          0.00000000	
          2.16600000	         -0.00251343	         -0.00495586	         -0.00110507	         -0.00007229	          0.00000000	         -0.00003512	        -22.94814495	        529.70026757	        -43.66835291	          0.25608296	          0.00000000	          0.09063821	          0.00000000	          0.00002617	          0.00000000	          0.00000000	          0.40780371	          0.00000000	
          2.16700000	         -0.00271437	         -0.00595153	         -0.00104595	         -0.00006590	          0.00000000	         -0.00003222	        -22.50992582	        528.50828986	        -43.50598038	          0.25640601	          0.00000000	          0.09073523	          0.00000000	          0.00002361	          0.00000000	          0.00000000	          0.40527794	          0.00000000	
          2.16800000	         -0.00288797	         -0.00684005	         -0.00098791	         -0.00005980	          0.00000000	         -0.00002945	        -22.07471908	        527.33514998	        -43.34384179	          0.25672715	          0.00000000	          0.09083059	          0.00000000	          0.00002117	          0.00000000	          0.00000000	          0.40277480	          0.00000000	
          2.16900000	         -0.00303589	         -0.00762718	         -0.00093107	         -0.00005399	          0.00000000	         -0.00002680	        -21.64245658	        526.18089389	        -43.18227530	          0.25704636	          0.00000000	          0.09092432	          0.00000000	          0.00001886	          0.00000000	          0.00000000	          0.40028472	          0.00000000	
